<svg viewBox="0 0 640 320" fill="white" xmlns="http://www.w3.org/2000/svg">
<path d="M116.352 115.062H117.477L126.383 147.359H126.477L135.102 115.062H136.555L145.18 147.359H145.32L154.227 115.062H155.352L145.977 149H144.523L135.898 116.703H135.758L127.18 149H125.68L116.352 115.062ZM160.742 115.062H179.281V116.586H162.336V131.281H178.273V132.781H162.336V147.453H179.703V149H160.742V115.062ZM189.359 115.062L202.344 145.836H202.578L215.586 115.062H217.953V149H215.867V120.172H215.68L203.469 149H201.43L189.219 120.172H189.031V149H186.945V115.062H189.359ZM229.344 149H226.602V115.062H229.344V149ZM247.695 129.641H247.93L257.188 115.062H261.102L250.25 132.031L261.102 149H257.188L247.93 134.609H247.695L238.438 149H234.523L245.586 132.031L234.523 115.062H238.484L247.695 129.641ZM276.406 115.062H287.75C290.25 115.062 292.352 115.531 294.055 116.469C295.758 117.391 297.031 118.648 297.875 120.242C298.719 121.836 299.141 123.672 299.141 125.75C299.141 127.797 298.719 129.625 297.875 131.234C297.031 132.844 295.758 134.125 294.055 135.078C292.367 136.016 290.281 136.484 287.797 136.484H279.43V133.016H287.633C289.383 133.016 290.828 132.703 291.969 132.078C293.109 131.453 293.945 130.594 294.477 129.5C295.023 128.406 295.297 127.156 295.297 125.75C295.297 124.312 295.023 123.055 294.477 121.977C293.945 120.883 293.102 120.031 291.945 119.422C290.789 118.812 289.336 118.508 287.586 118.508H280.273V149H276.406V115.062ZM304.555 123.547H308.68V127.484H308.961C309.43 126.156 310.258 125.102 311.445 124.32C312.648 123.523 313.992 123.125 315.477 123.125C316.258 123.125 316.969 123.164 317.609 123.242V127.484C317.438 127.422 317.094 127.359 316.578 127.297C316.078 127.234 315.594 127.203 315.125 127.203C313.953 127.203 312.883 127.461 311.914 127.977C310.961 128.477 310.203 129.18 309.641 130.086C309.094 130.977 308.82 131.977 308.82 133.086V149H304.555V123.547ZM332.305 149.516C329.852 149.516 327.711 148.977 325.883 147.898C324.07 146.82 322.672 145.297 321.688 143.328C320.703 141.359 320.211 139.07 320.211 136.461C320.211 133.867 320.703 131.562 321.688 129.547C322.672 127.531 324.047 125.977 325.812 124.883C327.578 123.773 329.633 123.219 331.977 123.219C334.008 123.219 335.875 123.656 337.578 124.531C339.281 125.406 340.648 126.805 341.68 128.727C342.711 130.648 343.227 133.062 343.227 135.969V137.75H323.023V134.047H338.422C338.422 132.734 338.156 131.57 337.625 130.555C337.094 129.523 336.336 128.719 335.352 128.141C334.383 127.547 333.266 127.25 332 127.25C330.625 127.25 329.414 127.586 328.367 128.258C327.32 128.914 326.508 129.805 325.93 130.93C325.352 132.055 325.062 133.266 325.062 134.562V137.375C325.062 139.078 325.359 140.539 325.953 141.758C326.562 142.961 327.414 143.883 328.508 144.523C329.617 145.164 330.898 145.484 332.352 145.484C333.258 145.484 334.078 145.359 334.812 145.109C335.562 144.844 336.195 144.508 336.711 144.102C337.227 143.695 337.625 143.219 337.906 142.672H342.898C342.508 144.031 341.828 145.227 340.859 146.258C339.906 147.273 338.695 148.07 337.227 148.648C335.773 149.227 334.133 149.516 332.305 149.516ZM360.336 127.836H346.086V123.547H360.336V127.836ZM355.273 117.453V141.43C355.273 142.273 355.398 142.922 355.648 143.375C355.898 143.828 356.227 144.148 356.633 144.336C357.055 144.508 357.562 144.594 358.156 144.594C358.875 144.609 359.727 144.578 360.711 144.5V149.117C359.773 149.273 358.695 149.352 357.477 149.352C356.023 149.352 354.711 149.094 353.539 148.578C352.383 148.062 351.461 147.289 350.773 146.258C350.086 145.211 349.75 143.93 349.766 142.414V117.453H355.273ZM376.32 149.492C373.805 149.492 371.609 148.961 369.734 147.898C367.875 146.836 366.445 145.32 365.445 143.352C364.445 141.383 363.945 139.078 363.945 136.438C363.945 133.828 364.445 131.523 365.445 129.523C366.445 127.508 367.859 125.953 369.688 124.859C371.516 123.766 373.633 123.219 376.039 123.219C378.227 123.219 380.195 123.68 381.945 124.602C383.711 125.523 385.109 126.953 386.141 128.891C387.172 130.828 387.688 133.219 387.688 136.062V137.938H366.758V133.836H381.852C381.852 132.695 381.609 131.68 381.125 130.789C380.641 129.898 379.961 129.203 379.086 128.703C378.227 128.188 377.234 127.93 376.109 127.93C374.906 127.93 373.844 128.211 372.922 128.773C372 129.336 371.281 130.102 370.766 131.07C370.25 132.039 369.984 133.086 369.969 134.211V137.773C369.969 139.227 370.234 140.484 370.766 141.547C371.297 142.594 372.047 143.398 373.016 143.961C373.984 144.508 375.117 144.781 376.414 144.781C377.242 144.781 377.992 144.664 378.664 144.43C379.352 144.195 379.93 143.891 380.398 143.516C380.883 143.125 381.25 142.664 381.5 142.133H387.453C387.094 143.602 386.414 144.891 385.414 146C384.43 147.109 383.156 147.969 381.594 148.578C380.047 149.188 378.289 149.492 376.32 149.492ZM398.914 149H392.211V123.547H398.609V127.977H398.891C399.5 126.492 400.453 125.328 401.75 124.484C403.062 123.641 404.656 123.219 406.531 123.219C408.297 123.219 409.836 123.602 411.148 124.367C412.461 125.117 413.477 126.211 414.195 127.648C414.914 129.086 415.273 130.797 415.273 132.781V149H408.57V133.93C408.57 132.852 408.391 131.938 408.031 131.188C407.672 130.422 407.141 129.836 406.438 129.43C405.75 129.023 404.906 128.82 403.906 128.82C402.922 128.82 402.047 129.031 401.281 129.453C400.531 129.875 399.945 130.492 399.523 131.305C399.117 132.117 398.914 133.086 398.914 134.211V149ZM429.992 149.398C428.055 149.398 426.305 148.898 424.742 147.898C423.195 146.883 421.969 145.383 421.062 143.398C420.156 141.414 419.703 139.039 419.703 136.273C419.703 133.445 420.164 131.047 421.086 129.078C422.008 127.109 423.242 125.641 424.789 124.672C426.352 123.703 428.078 123.219 429.969 123.219C431.297 123.219 432.438 123.445 433.391 123.898C434.359 124.336 435.133 124.891 435.711 125.562C436.289 126.219 436.781 126.984 437.188 127.859H437.375V115.062H444.711V149H437.492V144.922H437.188C436.781 145.781 436.281 146.531 435.688 147.172C435.094 147.797 434.312 148.328 433.344 148.766C432.391 149.188 431.273 149.398 429.992 149.398ZM432.359 143.586C433.453 143.586 434.391 143.289 435.172 142.695C435.953 142.086 436.547 141.227 436.953 140.117C437.375 139.008 437.586 137.719 437.586 136.25C437.586 134.766 437.383 133.484 436.977 132.406C436.57 131.312 435.977 130.477 435.195 129.898C434.414 129.32 433.469 129.031 432.359 129.031C431.266 129.031 430.328 129.328 429.547 129.922C428.781 130.516 428.195 131.359 427.789 132.453C427.383 133.531 427.18 134.797 427.18 136.25C427.18 137.719 427.383 139.008 427.789 140.117C428.195 141.211 428.781 142.062 429.547 142.672C430.328 143.281 431.266 143.586 432.359 143.586ZM464.75 138.289C463.984 138.32 462.969 138.367 461.703 138.43L459.594 138.617C458.594 138.727 457.797 139.047 457.203 139.578C456.625 140.094 456.336 140.758 456.336 141.57C456.336 142.117 456.469 142.586 456.734 142.977C457.016 143.367 457.406 143.664 457.906 143.867C458.422 144.07 458.992 144.172 459.617 144.172C460.508 144.172 461.32 143.992 462.055 143.633C462.789 143.273 463.367 142.773 463.789 142.133C464.211 141.477 464.422 140.75 464.422 139.953L464.328 131.633C464.328 131.039 464.195 130.531 463.93 130.109C463.664 129.688 463.266 129.375 462.734 129.172C462.219 128.953 461.602 128.844 460.883 128.844C459.852 128.844 459.008 129.07 458.352 129.523C457.711 129.961 457.32 130.602 457.18 131.445H449.75C449.891 129.898 450.406 128.5 451.297 127.25C452.203 126 453.477 125.016 455.117 124.297C456.773 123.578 458.75 123.219 461.047 123.219C463.203 123.219 465.125 123.555 466.812 124.227C468.516 124.883 469.852 125.852 470.82 127.133C471.805 128.414 472.297 129.945 472.297 131.727V149H464.797V145.461H464.609C464.156 146.305 463.578 147.023 462.875 147.617C462.188 148.195 461.367 148.641 460.414 148.953C459.477 149.266 458.406 149.422 457.203 149.422C455.547 149.422 454.094 149.141 452.844 148.578C451.594 148.016 450.609 147.172 449.891 146.047C449.172 144.922 448.812 143.547 448.812 141.922C448.812 139.266 449.672 137.32 451.391 136.086C453.125 134.836 455.406 134.125 458.234 133.953C458.766 133.906 460.195 133.836 462.523 133.742L464.703 133.648L464.75 138.289ZM477.031 123.547H485.281V128.258H485.562C486 126.57 486.734 125.312 487.766 124.484C488.797 123.641 490.016 123.219 491.422 123.219C492.156 123.219 492.914 123.312 493.695 123.5V130.883C493.32 130.742 492.812 130.633 492.172 130.555C491.547 130.477 490.969 130.438 490.438 130.438C489.5 130.438 488.664 130.641 487.93 131.047C487.195 131.453 486.617 132.039 486.195 132.805C485.773 133.555 485.562 134.422 485.562 135.406V149H477.031V123.547ZM505.883 149.328C504.039 149.328 502.359 148.844 500.844 147.875C499.328 146.906 498.125 145.438 497.234 143.469C496.344 141.5 495.898 139.094 495.898 136.25C495.898 133.312 496.359 130.867 497.281 128.914C498.203 126.961 499.414 125.523 500.914 124.602C502.414 123.68 504.055 123.219 505.836 123.219C507.055 123.219 508.141 123.43 509.094 123.852C510.047 124.273 510.844 124.844 511.484 125.562C512.125 126.281 512.617 127.094 512.961 128H513.102V115.062H522.242V149H513.195V144.828H512.961C512.617 145.703 512.117 146.477 511.461 147.148C510.805 147.82 510 148.352 509.047 148.742C508.094 149.133 507.039 149.328 505.883 149.328ZM509.258 142.297C510.102 142.297 510.828 142.055 511.438 141.57C512.047 141.086 512.516 140.383 512.844 139.461C513.172 138.539 513.336 137.469 513.336 136.25C513.336 135 513.172 133.922 512.844 133.016C512.516 132.109 512.047 131.422 511.438 130.953C510.828 130.484 510.102 130.25 509.258 130.25C508.414 130.25 507.695 130.484 507.102 130.953C506.508 131.422 506.055 132.109 505.742 133.016C505.43 133.922 505.273 135 505.273 136.25C505.273 137.5 505.43 138.578 505.742 139.484C506.055 140.391 506.508 141.086 507.102 141.57C507.695 142.055 508.414 142.297 509.258 142.297ZM96.2656 172.062H97.3438L102.828 204.312H102.969L108.125 172.062H109.859L115.062 204.312H115.203L120.688 172.062H121.719L116 206H114.266L109.062 173.703H108.922L103.766 206H102.031L96.2656 172.062ZM135.992 206.469C134.008 206.469 132.211 206.086 130.602 205.32C128.992 204.539 127.719 203.469 126.781 202.109C125.859 200.75 125.375 199.219 125.328 197.516H126.992C127.008 198.922 127.414 200.195 128.211 201.336C129.008 202.461 130.086 203.344 131.445 203.984C132.82 204.609 134.336 204.922 135.992 204.922C137.742 204.922 139.305 204.578 140.68 203.891C142.055 203.188 143.125 202.242 143.891 201.055C144.656 199.867 145.039 198.555 145.039 197.117C145.039 195.586 144.609 194.219 143.75 193.016C142.906 191.812 141.734 190.891 140.234 190.25C138.734 189.609 137.008 189.289 135.055 189.289H134.117V187.742H135.055C136.727 187.742 138.242 187.445 139.602 186.852C140.961 186.242 142.023 185.383 142.789 184.273C143.57 183.148 143.961 181.852 143.961 180.383C143.961 179.008 143.625 177.766 142.953 176.656C142.281 175.547 141.336 174.688 140.117 174.078C138.914 173.453 137.531 173.141 135.969 173.141C134.422 173.141 133.023 173.453 131.773 174.078C130.539 174.688 129.562 175.555 128.844 176.68C128.141 177.805 127.781 179.094 127.766 180.547H126.148C126.164 178.828 126.594 177.289 127.438 175.93C128.297 174.57 129.469 173.508 130.953 172.742C132.453 171.977 134.125 171.594 135.969 171.594C137.812 171.594 139.461 171.977 140.914 172.742C142.383 173.492 143.523 174.531 144.336 175.859C145.164 177.188 145.578 178.68 145.578 180.336C145.578 181.633 145.312 182.828 144.781 183.922C144.266 185 143.523 185.922 142.555 186.688C141.602 187.438 140.477 188 139.18 188.375V188.539C140.711 188.883 142.031 189.461 143.141 190.273C144.25 191.07 145.102 192.055 145.695 193.227C146.305 194.383 146.609 195.68 146.609 197.117C146.609 198.852 146.156 200.43 145.25 201.852C144.359 203.273 143.102 204.398 141.477 205.227C139.852 206.055 138.023 206.469 135.992 206.469ZM151.602 172.062H154.555L163.016 201.711H163.203L171.688 172.062H174.641V206H172.555V177.406H172.391L164.211 206H162.055L153.828 177.406H153.688V206H151.602V172.062ZM190.789 174.945H190.602L181.578 180.828V177.969L190.602 172.062H193.531V205.344H190.789V174.945ZM181.578 203.68H202.695V206H181.578V203.68ZM217.156 189.031L206.633 172.062H210.523L219.219 186.641H219.453L228.172 172.062H232.039L221.703 189.031L232.039 206H228.172L219.453 191.609H219.219L210.523 206H206.633L217.156 189.031ZM237.992 172.062H248.891C251.25 172.062 253.242 172.531 254.867 173.469C256.508 174.391 257.727 175.648 258.523 177.242C259.336 178.836 259.742 180.672 259.742 182.75C259.742 184.797 259.336 186.625 258.523 188.234C257.727 189.844 256.516 191.125 254.891 192.078C253.281 193.016 251.305 193.484 248.961 193.484H240.945V190.016H248.727C250.336 190.016 251.68 189.703 252.758 189.078C253.852 188.453 254.648 187.594 255.148 186.5C255.664 185.406 255.922 184.156 255.922 182.75C255.922 181.312 255.656 180.055 255.125 178.977C254.609 177.883 253.812 177.031 252.734 176.422C251.672 175.812 250.32 175.508 248.68 175.508H241.836V206H237.992V172.062ZM270.828 180.547H274.953V186.336H275.234C275.688 185.023 276.305 183.906 277.086 182.984C277.883 182.047 278.859 181.336 280.016 180.852C281.188 180.367 282.523 180.125 284.023 180.125C284.711 180.125 285.398 180.172 286.086 180.266C286.789 180.359 287.469 180.5 288.125 180.688V184.953C287.188 184.703 286.344 184.516 285.594 184.391C284.844 184.266 284.141 184.203 283.484 184.203C281.797 184.234 280.32 184.641 279.055 185.422C277.789 186.203 276.812 187.32 276.125 188.773C275.438 190.227 275.094 191.93 275.094 193.883V206H270.828V180.547ZM308.023 206.516C305.852 206.516 303.883 206.047 302.117 205.109C300.352 204.156 298.945 202.789 297.898 201.008C296.852 199.211 296.328 197.117 296.328 194.727V191.984C296.328 189.594 296.82 187.508 297.805 185.727C298.789 183.945 300.125 182.586 301.812 181.648C303.516 180.695 305.406 180.219 307.484 180.219C309.562 180.219 311.445 180.695 313.133 181.648C314.836 182.586 316.172 183.945 317.141 185.727C318.125 187.508 318.617 189.594 318.617 191.984V194.727L298.578 194.75V191.047H313.766C313.766 189.734 313.5 188.57 312.969 187.555C312.438 186.523 311.695 185.727 310.742 185.164C309.805 184.586 308.734 184.297 307.531 184.297C306.328 184.297 305.242 184.586 304.273 185.164C303.32 185.727 302.578 186.523 302.047 187.555C301.516 188.57 301.25 189.734 301.25 191.047V194.727C301.25 196.336 301.531 197.719 302.094 198.875C302.672 200.031 303.477 200.914 304.508 201.523C305.539 202.133 306.711 202.438 308.023 202.438C309.227 202.438 310.273 202.195 311.164 201.711C312.055 201.227 312.688 200.547 313.062 199.672H318.266C317.844 201.094 317.133 202.32 316.133 203.352C315.133 204.383 313.938 205.172 312.547 205.719C311.156 206.25 309.648 206.516 308.023 206.516ZM341.328 206.352C339.359 206.352 337.711 206.055 336.383 205.461C335.07 204.852 334.078 203.953 333.406 202.766C332.75 201.562 332.422 200.062 332.422 198.266L332.445 174.453H337.93V198.266C337.93 198.984 338.055 199.594 338.305 200.094C338.57 200.578 338.977 200.953 339.523 201.219C340.086 201.469 340.797 201.594 341.656 201.594H347.562V206.352H341.328ZM325.625 180.547H347.703V184.836H325.625V180.547ZM368.891 206.516C366.672 206.516 364.641 206.047 362.797 205.109C360.953 204.172 359.477 202.812 358.367 201.031C357.273 199.234 356.727 197.125 356.727 194.703V192.008C356.727 189.586 357.242 187.484 358.273 185.703C359.32 183.906 360.727 182.539 362.492 181.602C364.273 180.664 366.234 180.195 368.375 180.195C370.531 180.195 372.5 180.664 374.281 181.602C376.062 182.539 377.469 183.898 378.5 185.68C379.547 187.461 380.07 189.57 380.07 192.008V194.914L359.047 194.938V190.836H374.07C374.07 189.711 373.836 188.711 373.367 187.836C372.898 186.945 372.242 186.258 371.398 185.773C370.555 185.273 369.586 185.023 368.492 185.023C367.414 185.023 366.445 185.273 365.586 185.773C364.742 186.258 364.078 186.945 363.594 187.836C363.125 188.711 362.891 189.711 362.891 190.836V194.703C362.891 196.188 363.141 197.453 363.641 198.5C364.141 199.547 364.844 200.344 365.75 200.891C366.656 201.422 367.703 201.688 368.891 201.688C370 201.688 370.953 201.469 371.75 201.031C372.562 200.594 373.141 199.961 373.484 199.133H379.789C379.352 200.68 378.602 202.008 377.539 203.117C376.477 204.227 375.203 205.07 373.719 205.648C372.234 206.227 370.625 206.516 368.891 206.516ZM387.875 180.547H394.297V184.977H394.602C395.195 183.492 396.148 182.328 397.461 181.484C398.773 180.641 400.359 180.219 402.219 180.219C404 180.219 405.547 180.602 406.859 181.367C408.172 182.117 409.188 183.211 409.906 184.648C410.625 186.086 410.977 187.797 410.961 189.781V206H404.258V190.93C404.273 189.852 404.094 188.938 403.719 188.188C403.359 187.422 402.828 186.836 402.125 186.43C401.438 186.023 400.594 185.82 399.594 185.82C398.609 185.82 397.742 186.031 396.992 186.453C396.242 186.875 395.656 187.492 395.234 188.305C394.828 189.117 394.617 190.086 394.602 191.211V206H387.875V180.547ZM433.039 205.086C431.727 206.039 430.133 206.516 428.258 206.516C426.32 206.516 424.625 206.039 423.172 205.086C421.734 204.117 420.625 202.734 419.844 200.938C419.062 199.141 418.672 197.047 418.672 194.656V192.008C418.672 189.602 419.062 187.508 419.844 185.727C420.625 183.945 421.734 182.578 423.172 181.625C424.625 180.672 426.32 180.195 428.258 180.195C430.133 180.195 431.727 180.672 433.039 181.625C434.352 182.562 435.336 183.914 435.992 185.68C436.664 187.445 437 189.555 437 192.008V194.656C437 197.094 436.664 199.203 435.992 200.984C435.336 202.75 434.352 204.117 433.039 205.086ZM443.188 172.062V206H435.969V201.828H435.547L436.297 193.391L435.547 184.859H435.875V172.062H443.188ZM428.305 200.234C429.039 200.703 429.914 200.938 430.93 200.938C431.93 200.938 432.781 200.703 433.484 200.234C434.188 199.766 434.727 199.07 435.102 198.148C435.477 197.227 435.664 196.062 435.664 194.656V192.008C435.664 190.617 435.477 189.453 435.102 188.516C434.727 187.578 434.18 186.891 433.461 186.453C432.758 186 431.914 185.773 430.93 185.773C429.914 185.773 429.039 186 428.305 186.453C427.586 186.891 427.039 187.578 426.664 188.516C426.305 189.453 426.125 190.617 426.125 192.008V194.656C426.125 196.047 426.305 197.211 426.664 198.148C427.039 199.07 427.586 199.766 428.305 200.234ZM458.797 206.422C457.156 206.422 455.703 206.141 454.438 205.578C453.188 205.016 452.203 204.172 451.484 203.047C450.766 201.922 450.406 200.547 450.406 198.922C450.406 196.266 451.266 194.32 452.984 193.086C454.719 191.836 457 191.125 459.828 190.953C461 190.875 462.242 190.805 463.555 190.742C464.867 190.68 465.773 190.648 466.273 190.648L466.32 195.289C465.93 195.305 465.461 195.328 464.914 195.359C464.383 195.375 463.734 195.414 462.969 195.477C462.578 195.508 462.273 195.531 462.055 195.547C461.836 195.562 461.547 195.586 461.188 195.617C460.172 195.727 459.375 196.039 458.797 196.555C458.234 197.055 457.953 197.727 457.953 198.57C457.953 199.117 458.086 199.586 458.352 199.977C458.633 200.367 459.023 200.664 459.523 200.867C460.023 201.07 460.586 201.172 461.211 201.172C462.102 201.172 462.914 200.992 463.648 200.633C464.383 200.273 464.953 199.773 465.359 199.133C465.781 198.477 465.992 197.75 465.992 196.953L465.922 188.633C465.922 188.039 465.789 187.531 465.523 187.109C465.258 186.688 464.859 186.375 464.328 186.172C463.812 185.953 463.195 185.844 462.477 185.844C461.445 185.844 460.609 186.07 459.969 186.523C459.344 186.961 458.945 187.602 458.773 188.445H451.344C451.484 186.914 452 185.523 452.891 184.273C453.797 183.008 455.07 182.016 456.711 181.297C458.367 180.578 460.344 180.219 462.641 180.219C464.797 180.219 466.719 180.547 468.406 181.203C470.109 181.844 471.438 182.812 472.391 184.109C473.359 185.406 473.844 186.945 473.844 188.727V206H466.391V202.461H466.203C465.516 203.742 464.555 204.727 463.32 205.414C462.102 206.086 460.594 206.422 458.797 206.422ZM485.07 180.547H493.344V186.641H493.625C494.062 185.328 494.727 184.195 495.617 183.242C496.508 182.273 497.586 181.531 498.852 181.016C500.117 180.484 501.5 180.219 503 180.219C503.656 180.219 504.289 180.266 504.898 180.359C505.508 180.453 506.156 180.602 506.844 180.805V188.281C505.906 188 505.023 187.789 504.195 187.648C503.383 187.508 502.609 187.438 501.875 187.438C500.203 187.438 498.742 187.758 497.492 188.398C496.242 189.023 495.281 189.93 494.609 191.117C493.938 192.289 493.602 193.672 493.602 195.266V206H485.07V180.547ZM528.922 205.062C527.641 206.031 526.062 206.516 524.188 206.516C522.281 206.516 520.617 206.031 519.195 205.062C517.773 204.094 516.688 202.711 515.938 200.914C515.188 199.117 514.812 197.016 514.812 194.609V192.031C514.812 189.625 515.188 187.531 515.938 185.75C516.688 183.969 517.773 182.594 519.195 181.625C520.617 180.656 522.281 180.172 524.188 180.172C526.062 180.172 527.641 180.648 528.922 181.602C530.203 182.555 531.164 183.914 531.805 185.68C532.445 187.445 532.766 189.562 532.766 192.031V194.609C532.766 197.047 532.445 199.156 531.805 200.938C531.164 202.719 530.203 204.094 528.922 205.062ZM540.828 172.062V206H531.781V201.688H531.5L532.062 193.344L531.5 185H531.688V172.062H540.828ZM525.805 199.273C526.352 199.633 527.016 199.812 527.797 199.812C528.547 199.812 529.18 199.633 529.695 199.273C530.211 198.914 530.609 198.352 530.891 197.586C531.172 196.82 531.312 195.828 531.312 194.609V192.031C531.312 190.812 531.172 189.82 530.891 189.055C530.609 188.289 530.211 187.734 529.695 187.391C529.18 187.047 528.547 186.875 527.797 186.875C527.016 186.875 526.352 187.047 525.805 187.391C525.258 187.734 524.844 188.289 524.562 189.055C524.281 189.82 524.141 190.812 524.141 192.031V194.609C524.141 195.828 524.281 196.82 524.562 197.586C524.844 198.352 525.258 198.914 525.805 199.273Z"/>
</svg>
